<svg xmlns="http://www.w3.org/2000/svg" xmlns:xlink="http://www.w3.org/1999/xlink" viewBox="0 0 446.4 446.4"><defs><style>.cls-1{fill:#f5f5f5;}.cls-2{fill:#f47221;}.cls-3{fill:url(#linear-gradient);}.cls-4{fill:#d93727;}</style><linearGradient id="linear-gradient" x1="8960" y1="-5816.16" x2="9406.57" y2="-6380.49" gradientTransform="matrix(0.07, 0, 0, -0.07, -385.86, -234.79)" gradientUnits="userSpaceOnUse"><stop offset="0" stop-color="#d93727"/><stop offset="1" stop-color="#f47221"/></linearGradient></defs><title>bithumb</title><g id="Layer_2" data-name="Layer 2"><g id="Layer_1-2" data-name="Layer 1"><g id="Layer_1-3" data-name="Layer_1"><g id="_2228484314416" data-name=" 2228484314416"><circle class="cls-1" cx="223.2" cy="223.2" r="223.2"/><path class="cls-2" d="M165.82,150.77c5.83-21.82,12-43.49,17.71-65.23,14.69,0,29.3-.07,43.92,0,5.69-.07,11.52,1.37,15.91,5.18,6.91,5.62,9.36,15.34,7.2,23.83-3.17,12.1-6.34,24.19-9.94,36.22-6.12,20.74-11.45,41.83-17.28,62.71-1.15,4-2.16,8-3,12-3,11.23-6.19,22.32-9,33.48A44,44,0,0,0,210.17,276,12.5,12.5,0,0,0,223,285.77c8.28.72,16.13-4,20.81-10.66C250.42,266,253.87,255,255,243.94c.36-5.11-.5-10.73-4-14.69,7.49-8.78,17.06-15.41,24.91-23.9,5.11-5.62,11.3-10.08,16.78-15.34,8.64-7.2,16.2-15.55,24.48-23.18,13.61,14.4,17.93,35.06,17.06,54.29-1.15,23-7.49,45.79-17.35,66.6-12.53,26.28-33.7,48.67-60.19,61a122.64,122.64,0,0,1-78.7,9.5c-15.26-3.46-30.38-11-39.46-24.19-9.79-14.11-11-32.26-8.57-48.74,1.87-12.31,5.62-24.12,8.86-36.07,2.09-7.85,4.25-15.7,6.41-23.47Q155.66,188.24,165.82,150.77Z"/><path class="cls-3" d="M253.15,254.66A77.78,77.78,0,0,0,255,243.94c.36-5.11-.5-10.73-4-14.69-2.88-2.88-7-3.6-10.87-3.67-6.7-.07-13.25,0-19.87-.07.86-4,1.87-8.06,3-12,5.83-20.88,11.16-42,17.28-62.71,11.74-.14,23.4-.07,35.06-.07,15.19,0,30.89,4.9,41.54,16.13,13.61,14.4,17.93,35.06,17.06,54.29A164.52,164.52,0,0,1,329,254.66Z"/><path class="cls-4" d="M126.5,196.78c4.46-15.34,8.71-30.82,13.32-46.15,8.64.14,17.28,0,26,.14q-10.15,37.48-20.52,75c-5.83-.86-11.66-3.24-15.34-8.06C125.28,211.9,124.7,203.83,126.5,196.78Z"/></g></g></g></g></svg>